<?xml version="1.0" encoding="utf-8"?>
<svg viewBox="0 0 500 500" xmlns="http://www.w3.org/2000/svg">
  <path d="M 380.567 270.769 L 380.567 291.565 C 380.567 299.234 374.371 305.429 366.703 305.429 L 352.275 305.429 C 348.983 325.099 331.869 340.089 311.246 340.089 C 290.624 340.089 273.51 325.099 270.218 305.429 L 213.635 305.429 C 210.342 325.099 193.229 340.089 172.606 340.089 C 151.983 340.089 134.887 325.099 131.59 305.429 L 117.15 305.429 C 109.494 305.429 103.286 299.234 103.286 291.565 L 103.286 243.041 C 103.286 231.3 110.569 221.292 120.859 217.219 L 138.899 172.14 C 145.216 156.348 160.518 145.993 177.502 145.993 L 256.31 145.993 C 268.961 145.993 280.529 151.738 288.804 161.603 L 332.129 215.746 C 359.424 218.822 380.567 242.521 380.567 270.379 L 380.567 270.769 Z M 177.502 173.721 C 171.826 173.721 166.757 176.797 164.634 182.429 L 151.507 215.313 L 200.334 215.313 L 200.334 173.721 L 177.502 173.721 Z M 221.13 215.313 L 296.256 215.313 L 267.141 178.92 C 264.542 175.627 260.166 173.721 256.31 173.721 L 221.13 173.721 L 221.13 215.313 Z M 330.873 305.429 C 331.609 302.873 332.042 300.924 332.042 298.497 C 332.042 287.016 322.728 277.701 311.246 277.701 C 299.765 277.701 290.45 287.016 290.45 298.497 C 290.45 300.924 290.494 302.873 291.62 305.429 C 294.48 313.488 302.191 319.293 311.246 319.293 C 320.301 319.293 328.013 313.488 330.873 305.429 Z M 192.232 305.429 C 192.969 302.873 193.402 300.924 193.402 298.497 C 193.402 287.016 184.087 277.701 172.606 277.701 C 161.125 277.701 151.81 287.016 151.81 298.497 C 151.81 300.924 151.853 302.873 152.98 305.429 C 155.839 313.488 163.551 319.293 172.606 319.293 C 181.661 319.293 189.373 313.488 192.232 305.429 Z" style="paint-order: stroke; stroke: rgb(0, 0, 0); stroke-width: 6px; fill: rgb(25, 101, 172); fill-rule: nonzero; mix-blend-mode: darken;"/>
</svg>