<?xml version="1.0" encoding="utf-8"?>
<svg viewBox="0 0 500 500" xmlns="http://www.w3.org/2000/svg">
  <path d="M 278.229 110.827 C 278.229 127.095 265.035 140.283 248.773 140.283 C 232.511 140.283 219.318 127.095 219.318 110.827 C 219.318 94.559 232.511 81.371 248.773 81.371 C 265.035 81.371 278.229 94.559 278.229 110.827 Z M 243.864 297.38 L 243.864 375.929 C 243.864 386.791 235.089 395.566 224.227 395.566 C 213.365 395.566 204.59 386.791 204.59 375.929 L 204.59 239.021 L 187.057 268.231 C 181.473 277.498 169.409 280.504 160.112 274.92 C 150.815 269.336 147.807 257.308 153.394 247.98 L 189.156 188.517 C 199.803 170.782 218.949 159.92 239.63 159.92 L 257.917 159.92 C 278.597 159.92 297.744 170.782 308.421 188.517 L 344.136 247.98 C 349.721 257.308 346.714 269.336 337.448 274.92 C 328.12 280.504 316.092 277.498 310.508 268.231 L 292.957 239.021 L 292.957 375.929 C 292.957 386.791 284.182 395.566 273.32 395.566 C 262.458 395.566 253.683 386.791 253.683 375.929 L 253.683 297.38 L 243.864 297.38 Z" style="stroke-width: 3px; stroke: rgb(0, 0, 0); fill: rgb(230, 143, 3);"/>
</svg>