<?xml version="1.0" encoding="utf-8"?>
<svg viewBox="0 0 500 500" xmlns="http://www.w3.org/2000/svg">
  <path d="M 227.462 258.317 C 227.462 246.133 237.306 236.288 249.491 236.288 C 261.676 236.288 271.52 246.133 271.52 258.317 C 271.52 270.502 261.676 280.346 249.491 280.346 C 237.306 280.346 227.462 270.502 227.462 258.317 Z M 249.491 82.086 C 261.676 82.086 271.52 91.951 271.52 104.115 L 271.52 111.24 C 336.023 120.823 386.965 171.785 396.533 236.288 L 403.693 236.288 C 415.878 236.288 425.722 246.133 425.722 258.317 C 425.722 270.502 415.878 280.346 403.693 280.346 L 396.533 280.346 C 386.965 344.849 336.023 395.791 271.52 405.36 L 271.52 412.519 C 271.52 424.704 261.676 434.548 249.491 434.548 C 237.306 434.548 227.462 424.704 227.462 412.519 L 227.462 405.36 C 162.959 395.791 111.996 344.849 102.414 280.346 L 95.289 280.346 C 83.125 280.346 73.26 270.502 73.26 258.317 C 73.26 246.133 83.125 236.288 95.289 236.288 L 102.414 236.288 C 111.996 171.785 162.959 120.823 227.462 111.24 L 227.462 104.115 C 227.462 91.951 237.306 82.086 249.491 82.086 Z M 227.462 360.614 L 227.462 346.433 C 227.462 334.248 237.306 324.404 249.491 324.404 C 261.676 324.404 271.52 334.248 271.52 346.433 L 271.52 360.614 C 311.654 352.009 343.182 320.48 351.787 280.346 L 337.606 280.346 C 325.422 280.346 315.577 270.502 315.577 258.317 C 315.577 246.133 325.422 236.288 337.606 236.288 L 351.787 236.288 C 343.182 196.155 311.654 164.626 271.52 156.021 L 271.52 170.202 C 271.52 182.387 261.676 192.231 249.491 192.231 C 237.306 192.231 227.462 182.387 227.462 170.202 L 227.462 156.021 C 187.328 164.626 155.799 196.155 147.194 236.288 L 161.375 236.288 C 173.56 236.288 183.404 246.133 183.404 258.317 C 183.404 270.502 173.56 280.346 161.375 280.346 L 147.194 280.346 C 155.799 320.48 187.328 352.009 227.462 360.614 Z" style="stroke-width: 5px; fill: rgb(174, 4, 4); stroke: rgb(20, 34, 19);"/>
</svg>